<mxfile host="app.diagrams.net" modified="2023-10-11T08:18:06.508Z" agent="Mozilla/5.0 (Windows NT 10.0; Win64; x64) AppleWebKit/537.36 (KHTML, like Gecko) Chrome/117.0.0.0 Safari/537.36" etag="Iy-Dxff8TPYXnIPfjgyL" version="22.0.4" type="device">
  <diagram id="R2lEEEUBdFMjLlhIrx00" name="Page-1">
    <mxGraphModel dx="2161" dy="1806" grid="1" gridSize="10" guides="1" tooltips="1" connect="1" arrows="1" fold="1" page="1" pageScale="1" pageWidth="850" pageHeight="1100" math="0" shadow="0" extFonts="Permanent Marker^https://fonts.googleapis.com/css?family=Permanent+Marker">
      <root>
        <mxCell id="0" />
        <mxCell id="1" parent="0" />
        <mxCell id="ZWPdTzvgqdJTTZtDZFIi-1" value="reserva" style="rounded=0;whiteSpace=wrap;html=1;fillColor=#fff2cc;strokeColor=#d6b656;" parent="1" vertex="1">
          <mxGeometry x="200" y="140" width="120" height="60" as="geometry" />
        </mxCell>
        <mxCell id="ZWPdTzvgqdJTTZtDZFIi-2" value="cliente" style="rounded=0;whiteSpace=wrap;html=1;fillColor=#f5f5f5;strokeColor=#666666;gradientColor=#B3B3B3;" parent="1" vertex="1">
          <mxGeometry x="200" y="440" width="120" height="60" as="geometry" />
        </mxCell>
        <mxCell id="ZWPdTzvgqdJTTZtDZFIi-3" value="aviones" style="rounded=0;whiteSpace=wrap;html=1;fillColor=#FFCCFF;strokeColor=default;" parent="1" vertex="1">
          <mxGeometry x="610" y="120" width="120" height="60" as="geometry" />
        </mxCell>
        <mxCell id="ZWPdTzvgqdJTTZtDZFIi-4" value="aeropuerto" style="rounded=0;whiteSpace=wrap;html=1;fillColor=#CC99FF;strokeColor=default;shadow=0;" parent="1" vertex="1">
          <mxGeometry x="1200" y="-125" width="120" height="60" as="geometry" />
        </mxCell>
        <mxCell id="ZWPdTzvgqdJTTZtDZFIi-5" value="vuelo" style="rounded=0;whiteSpace=wrap;html=1;fillColor=#f8cecc;strokeColor=#b85450;" parent="1" vertex="1">
          <mxGeometry x="610" y="-140" width="120" height="60" as="geometry" />
        </mxCell>
        <mxCell id="ZWPdTzvgqdJTTZtDZFIi-6" value="viaje" style="rounded=0;whiteSpace=wrap;html=1;fillColor=#d5e8d4;strokeColor=#82b366;" parent="1" vertex="1">
          <mxGeometry x="200" y="-140" width="120" height="60" as="geometry" />
        </mxCell>
        <mxCell id="3pP--lUJrI7Q3TOufA4M-1" value="reserva" style="rhombus;whiteSpace=wrap;html=1;" parent="1" vertex="1">
          <mxGeometry x="220" y="270" width="80" height="80" as="geometry" />
        </mxCell>
        <mxCell id="3pP--lUJrI7Q3TOufA4M-2" value="" style="endArrow=none;html=1;rounded=0;entryX=0.5;entryY=0;entryDx=0;entryDy=0;" parent="1" source="ZWPdTzvgqdJTTZtDZFIi-1" target="3pP--lUJrI7Q3TOufA4M-1" edge="1">
          <mxGeometry width="50" height="50" relative="1" as="geometry">
            <mxPoint x="390" y="220" as="sourcePoint" />
            <mxPoint x="420" y="170" as="targetPoint" />
          </mxGeometry>
        </mxCell>
        <mxCell id="3pP--lUJrI7Q3TOufA4M-3" value="" style="endArrow=none;html=1;rounded=0;exitX=0.5;exitY=1;exitDx=0;exitDy=0;entryX=0.5;entryY=0;entryDx=0;entryDy=0;" parent="1" source="3pP--lUJrI7Q3TOufA4M-1" target="ZWPdTzvgqdJTTZtDZFIi-2" edge="1">
          <mxGeometry width="50" height="50" relative="1" as="geometry">
            <mxPoint x="330" y="180" as="sourcePoint" />
            <mxPoint x="240" y="520" as="targetPoint" />
          </mxGeometry>
        </mxCell>
        <mxCell id="3pP--lUJrI7Q3TOufA4M-4" value="(1,N)" style="text;html=1;strokeColor=none;fillColor=none;align=center;verticalAlign=middle;whiteSpace=wrap;rounded=0;" parent="1" vertex="1">
          <mxGeometry x="270" y="220" width="60" height="30" as="geometry" />
        </mxCell>
        <mxCell id="3pP--lUJrI7Q3TOufA4M-5" value="(1,N)" style="text;html=1;strokeColor=none;fillColor=none;align=center;verticalAlign=middle;whiteSpace=wrap;rounded=0;" parent="1" vertex="1">
          <mxGeometry x="270" y="370" width="60" height="30" as="geometry" />
        </mxCell>
        <mxCell id="3pP--lUJrI7Q3TOufA4M-6" value="contiene" style="rhombus;whiteSpace=wrap;html=1;" parent="1" vertex="1">
          <mxGeometry x="220" width="80" height="80" as="geometry" />
        </mxCell>
        <mxCell id="3pP--lUJrI7Q3TOufA4M-7" value="" style="endArrow=none;html=1;rounded=0;exitX=0.5;exitY=0;exitDx=0;exitDy=0;" parent="1" source="ZWPdTzvgqdJTTZtDZFIi-1" target="3pP--lUJrI7Q3TOufA4M-6" edge="1">
          <mxGeometry width="50" height="50" relative="1" as="geometry">
            <mxPoint x="390" y="220" as="sourcePoint" />
            <mxPoint x="440" y="170" as="targetPoint" />
          </mxGeometry>
        </mxCell>
        <mxCell id="3pP--lUJrI7Q3TOufA4M-8" value="" style="endArrow=none;html=1;rounded=0;exitX=0.5;exitY=1;exitDx=0;exitDy=0;entryX=0.5;entryY=0;entryDx=0;entryDy=0;" parent="1" source="ZWPdTzvgqdJTTZtDZFIi-6" target="3pP--lUJrI7Q3TOufA4M-6" edge="1">
          <mxGeometry width="50" height="50" relative="1" as="geometry">
            <mxPoint x="270" y="150" as="sourcePoint" />
            <mxPoint x="270" y="70" as="targetPoint" />
          </mxGeometry>
        </mxCell>
        <mxCell id="3pP--lUJrI7Q3TOufA4M-9" value="(1,N)" style="text;html=1;strokeColor=none;fillColor=none;align=center;verticalAlign=middle;whiteSpace=wrap;rounded=0;" parent="1" vertex="1">
          <mxGeometry x="260" y="-60" width="60" height="30" as="geometry" />
        </mxCell>
        <mxCell id="3pP--lUJrI7Q3TOufA4M-10" value="(1,N)" style="text;html=1;strokeColor=none;fillColor=none;align=center;verticalAlign=middle;whiteSpace=wrap;rounded=0;" parent="1" vertex="1">
          <mxGeometry x="260" y="90" width="60" height="30" as="geometry" />
        </mxCell>
        <mxCell id="3pP--lUJrI7Q3TOufA4M-11" value="tiene" style="rhombus;whiteSpace=wrap;html=1;" parent="1" vertex="1">
          <mxGeometry x="425" y="-150" width="80" height="80" as="geometry" />
        </mxCell>
        <mxCell id="3pP--lUJrI7Q3TOufA4M-12" value="" style="endArrow=none;html=1;rounded=0;entryX=0;entryY=0.5;entryDx=0;entryDy=0;exitX=1;exitY=0.5;exitDx=0;exitDy=0;" parent="1" source="ZWPdTzvgqdJTTZtDZFIi-6" target="3pP--lUJrI7Q3TOufA4M-11" edge="1">
          <mxGeometry width="50" height="50" relative="1" as="geometry">
            <mxPoint x="320" y="-100" as="sourcePoint" />
            <mxPoint x="370" y="-150" as="targetPoint" />
          </mxGeometry>
        </mxCell>
        <mxCell id="3pP--lUJrI7Q3TOufA4M-13" value="" style="endArrow=none;html=1;rounded=0;entryX=1;entryY=0.5;entryDx=0;entryDy=0;exitX=0;exitY=0.5;exitDx=0;exitDy=0;" parent="1" source="ZWPdTzvgqdJTTZtDZFIi-5" target="3pP--lUJrI7Q3TOufA4M-11" edge="1">
          <mxGeometry width="50" height="50" relative="1" as="geometry">
            <mxPoint x="330" y="-100" as="sourcePoint" />
            <mxPoint x="435" y="-100" as="targetPoint" />
          </mxGeometry>
        </mxCell>
        <mxCell id="3pP--lUJrI7Q3TOufA4M-14" value="(1,N)" style="text;html=1;strokeColor=none;fillColor=none;align=center;verticalAlign=middle;whiteSpace=wrap;rounded=0;" parent="1" vertex="1">
          <mxGeometry x="340" y="-140" width="60" height="30" as="geometry" />
        </mxCell>
        <mxCell id="3pP--lUJrI7Q3TOufA4M-15" value="(1,N)" style="text;html=1;strokeColor=none;fillColor=none;align=center;verticalAlign=middle;whiteSpace=wrap;rounded=0;" parent="1" vertex="1">
          <mxGeometry x="520" y="-140" width="60" height="30" as="geometry" />
        </mxCell>
        <mxCell id="3pP--lUJrI7Q3TOufA4M-16" value="sale" style="rhombus;whiteSpace=wrap;html=1;" parent="1" vertex="1">
          <mxGeometry x="940" y="-180" width="80" height="80" as="geometry" />
        </mxCell>
        <mxCell id="3pP--lUJrI7Q3TOufA4M-17" value="" style="endArrow=none;html=1;rounded=0;exitX=1;exitY=0.5;exitDx=0;exitDy=0;entryX=0;entryY=0.5;entryDx=0;entryDy=0;" parent="1" source="ZWPdTzvgqdJTTZtDZFIi-5" target="3pP--lUJrI7Q3TOufA4M-16" edge="1">
          <mxGeometry width="50" height="50" relative="1" as="geometry">
            <mxPoint x="850" y="-95" as="sourcePoint" />
            <mxPoint x="1080" y="155" as="targetPoint" />
          </mxGeometry>
        </mxCell>
        <mxCell id="3pP--lUJrI7Q3TOufA4M-18" value="" style="endArrow=none;html=1;rounded=0;exitX=0;exitY=0.5;exitDx=0;exitDy=0;entryX=1;entryY=0.5;entryDx=0;entryDy=0;" parent="1" source="ZWPdTzvgqdJTTZtDZFIi-4" target="3pP--lUJrI7Q3TOufA4M-16" edge="1">
          <mxGeometry width="50" height="50" relative="1" as="geometry">
            <mxPoint x="940" y="-85" as="sourcePoint" />
            <mxPoint x="1040" y="-85" as="targetPoint" />
          </mxGeometry>
        </mxCell>
        <mxCell id="3pP--lUJrI7Q3TOufA4M-19" value="(1,N)" style="text;html=1;strokeColor=none;fillColor=none;align=center;verticalAlign=middle;whiteSpace=wrap;rounded=0;" parent="1" vertex="1">
          <mxGeometry x="840" y="-160" width="60" height="30" as="geometry" />
        </mxCell>
        <mxCell id="3pP--lUJrI7Q3TOufA4M-20" value="(1,N)" style="text;html=1;strokeColor=none;fillColor=none;align=center;verticalAlign=middle;whiteSpace=wrap;rounded=0;" parent="1" vertex="1">
          <mxGeometry x="1060" y="-155" width="60" height="30" as="geometry" />
        </mxCell>
        <mxCell id="3pP--lUJrI7Q3TOufA4M-21" value="llega" style="rhombus;whiteSpace=wrap;html=1;" parent="1" vertex="1">
          <mxGeometry x="940" y="-80" width="80" height="80" as="geometry" />
        </mxCell>
        <mxCell id="3pP--lUJrI7Q3TOufA4M-22" value="" style="endArrow=none;html=1;rounded=0;exitX=1;exitY=0.5;exitDx=0;exitDy=0;entryX=0;entryY=0.5;entryDx=0;entryDy=0;" parent="1" source="ZWPdTzvgqdJTTZtDZFIi-5" target="3pP--lUJrI7Q3TOufA4M-21" edge="1">
          <mxGeometry width="50" height="50" relative="1" as="geometry">
            <mxPoint x="850" y="-95" as="sourcePoint" />
            <mxPoint x="1040" y="-115" as="targetPoint" />
          </mxGeometry>
        </mxCell>
        <mxCell id="3pP--lUJrI7Q3TOufA4M-23" value="" style="endArrow=none;html=1;rounded=0;exitX=1;exitY=0.5;exitDx=0;exitDy=0;entryX=0;entryY=0.5;entryDx=0;entryDy=0;" parent="1" source="3pP--lUJrI7Q3TOufA4M-21" target="ZWPdTzvgqdJTTZtDZFIi-4" edge="1">
          <mxGeometry width="50" height="50" relative="1" as="geometry">
            <mxPoint x="950" y="-75" as="sourcePoint" />
            <mxPoint x="1190" y="-85" as="targetPoint" />
          </mxGeometry>
        </mxCell>
        <mxCell id="3pP--lUJrI7Q3TOufA4M-24" value="(1,N)" style="text;html=1;strokeColor=none;fillColor=none;align=center;verticalAlign=middle;whiteSpace=wrap;rounded=0;" parent="1" vertex="1">
          <mxGeometry x="830" y="-60" width="60" height="30" as="geometry" />
        </mxCell>
        <mxCell id="3pP--lUJrI7Q3TOufA4M-25" value="(1,N)" style="text;html=1;strokeColor=none;fillColor=none;align=center;verticalAlign=middle;whiteSpace=wrap;rounded=0;" parent="1" vertex="1">
          <mxGeometry x="1090" y="-60" width="60" height="30" as="geometry" />
        </mxCell>
        <mxCell id="3pP--lUJrI7Q3TOufA4M-27" value="realizan" style="rhombus;whiteSpace=wrap;html=1;" parent="1" vertex="1">
          <mxGeometry x="630" y="-20" width="80" height="80" as="geometry" />
        </mxCell>
        <mxCell id="3pP--lUJrI7Q3TOufA4M-29" value="" style="endArrow=none;html=1;rounded=0;entryX=0.5;entryY=0;entryDx=0;entryDy=0;" parent="1" target="3pP--lUJrI7Q3TOufA4M-27" edge="1">
          <mxGeometry width="50" height="50" relative="1" as="geometry">
            <mxPoint x="670" y="-80" as="sourcePoint" />
            <mxPoint x="670" y="-40" as="targetPoint" />
          </mxGeometry>
        </mxCell>
        <mxCell id="3pP--lUJrI7Q3TOufA4M-30" value="(1,N)" style="text;html=1;strokeColor=none;fillColor=none;align=center;verticalAlign=middle;whiteSpace=wrap;rounded=0;" parent="1" vertex="1">
          <mxGeometry x="620" y="80" width="60" height="30" as="geometry" />
        </mxCell>
        <mxCell id="3pP--lUJrI7Q3TOufA4M-31" value="(0,N)" style="text;html=1;strokeColor=none;fillColor=none;align=center;verticalAlign=middle;whiteSpace=wrap;rounded=0;" parent="1" vertex="1">
          <mxGeometry x="620" y="-60" width="60" height="30" as="geometry" />
        </mxCell>
        <mxCell id="3pP--lUJrI7Q3TOufA4M-32" value="avion" style="ellipse;whiteSpace=wrap;html=1;fillColor=#f8cecc;strokeColor=#b85450;" parent="1" vertex="1">
          <mxGeometry x="820" y="-225" width="120" height="30" as="geometry" />
        </mxCell>
        <mxCell id="3pP--lUJrI7Q3TOufA4M-33" value="&lt;b&gt;&lt;u&gt;id_reserva&lt;/u&gt;&lt;/b&gt;" style="ellipse;whiteSpace=wrap;html=1;fillColor=#fff2cc;strokeColor=default;" parent="1" vertex="1">
          <mxGeometry x="-5" y="110" width="120" height="30" as="geometry" />
        </mxCell>
        <mxCell id="3pP--lUJrI7Q3TOufA4M-34" value="plaza_reservada" style="ellipse;whiteSpace=wrap;html=1;fillColor=#fff2cc;strokeColor=default;" parent="1" vertex="1">
          <mxGeometry x="-55" y="155" width="120" height="30" as="geometry" />
        </mxCell>
        <mxCell id="3pP--lUJrI7Q3TOufA4M-35" value="tiempo_total" style="ellipse;whiteSpace=wrap;html=1;fillColor=#fff2cc;strokeColor=default;" parent="1" vertex="1">
          <mxGeometry x="-55" y="200" width="120" height="30" as="geometry" />
        </mxCell>
        <mxCell id="3pP--lUJrI7Q3TOufA4M-36" value="companya_reserva" style="ellipse;whiteSpace=wrap;html=1;fillColor=#fff2cc;strokeColor=default;" parent="1" vertex="1">
          <mxGeometry x="-5" y="240" width="120" height="30" as="geometry" />
        </mxCell>
        <mxCell id="3pP--lUJrI7Q3TOufA4M-37" value="ciudad_destino" style="ellipse;whiteSpace=wrap;html=1;fillColor=#d5e8d4;strokeColor=#82b366;" parent="1" vertex="1">
          <mxGeometry x="240" y="-255" width="120" height="30" as="geometry" />
        </mxCell>
        <mxCell id="3pP--lUJrI7Q3TOufA4M-38" value="ciudad_origen" style="ellipse;whiteSpace=wrap;html=1;fillColor=#d5e8d4;strokeColor=#82b366;" parent="1" vertex="1">
          <mxGeometry x="80" y="-250" width="120" height="30" as="geometry" />
        </mxCell>
        <mxCell id="3pP--lUJrI7Q3TOufA4M-40" value="" style="endArrow=none;html=1;rounded=0;entryX=0.5;entryY=0;entryDx=0;entryDy=0;exitX=0.5;exitY=1;exitDx=0;exitDy=0;" parent="1" source="3pP--lUJrI7Q3TOufA4M-27" target="ZWPdTzvgqdJTTZtDZFIi-3" edge="1">
          <mxGeometry width="50" height="50" relative="1" as="geometry">
            <mxPoint x="740" y="-130" as="sourcePoint" />
            <mxPoint x="790" y="-180" as="targetPoint" />
          </mxGeometry>
        </mxCell>
        <mxCell id="3pP--lUJrI7Q3TOufA4M-41" value="iata" style="ellipse;whiteSpace=wrap;html=1;fillColor=#f8cecc;strokeColor=#b85450;" parent="1" vertex="1">
          <mxGeometry x="440" y="-225" width="120" height="30" as="geometry" />
        </mxCell>
        <mxCell id="3pP--lUJrI7Q3TOufA4M-42" value="fecha_salida_prevista" style="ellipse;whiteSpace=wrap;html=1;fillColor=#f8cecc;strokeColor=#b85450;" parent="1" vertex="1">
          <mxGeometry x="530" y="-280" width="140" height="30" as="geometry" />
        </mxCell>
        <mxCell id="3pP--lUJrI7Q3TOufA4M-43" value="fecha_llegada_prevista" style="ellipse;whiteSpace=wrap;html=1;fillColor=#f8cecc;strokeColor=#b85450;" parent="1" vertex="1">
          <mxGeometry x="690" y="-280" width="150" height="30" as="geometry" />
        </mxCell>
        <mxCell id="3pP--lUJrI7Q3TOufA4M-44" value="fecha" style="ellipse;whiteSpace=wrap;html=1;fillColor=#f8cecc;strokeColor=#b85450;" parent="1" vertex="1">
          <mxGeometry x="420" y="-390" width="120" height="30" as="geometry" />
        </mxCell>
        <mxCell id="3pP--lUJrI7Q3TOufA4M-46" value="fecha" style="ellipse;whiteSpace=wrap;html=1;fillColor=#f8cecc;strokeColor=#b85450;" parent="1" vertex="1">
          <mxGeometry x="680" y="-390" width="120" height="30" as="geometry" />
        </mxCell>
        <mxCell id="3pP--lUJrI7Q3TOufA4M-47" value="hora" style="ellipse;whiteSpace=wrap;html=1;fillColor=#f8cecc;strokeColor=#b85450;" parent="1" vertex="1">
          <mxGeometry x="550" y="-390" width="120" height="30" as="geometry" />
        </mxCell>
        <mxCell id="3pP--lUJrI7Q3TOufA4M-48" value="hora" style="ellipse;whiteSpace=wrap;html=1;fillColor=#f8cecc;strokeColor=#b85450;" parent="1" vertex="1">
          <mxGeometry x="810" y="-390" width="120" height="30" as="geometry" />
        </mxCell>
        <mxCell id="3pP--lUJrI7Q3TOufA4M-50" value="&lt;b&gt;&lt;u&gt;id_aeropuerto&lt;/u&gt;&lt;/b&gt;" style="ellipse;whiteSpace=wrap;html=1;fillColor=#CC99FF;strokeColor=default;" parent="1" vertex="1">
          <mxGeometry x="1330" y="-190" width="120" height="30" as="geometry" />
        </mxCell>
        <mxCell id="3pP--lUJrI7Q3TOufA4M-51" value="nombre" style="ellipse;whiteSpace=wrap;html=1;fillColor=#CC99FF;strokeColor=default;" parent="1" vertex="1">
          <mxGeometry x="1440" y="-140" width="120" height="30" as="geometry" />
        </mxCell>
        <mxCell id="3pP--lUJrI7Q3TOufA4M-52" value="localidad" style="ellipse;whiteSpace=wrap;html=1;fillColor=#CC99FF;strokeColor=default;" parent="1" vertex="1">
          <mxGeometry x="1440" y="-60" width="120" height="30" as="geometry" />
        </mxCell>
        <mxCell id="3pP--lUJrI7Q3TOufA4M-53" value="pais" style="ellipse;whiteSpace=wrap;html=1;fillColor=#CC99FF;strokeColor=#1A1A1A;" parent="1" vertex="1">
          <mxGeometry x="1320" y="-20" width="120" height="30" as="geometry" />
        </mxCell>
        <mxCell id="3pP--lUJrI7Q3TOufA4M-54" value="&lt;b&gt;&lt;u&gt;codigo&lt;/u&gt;&lt;/b&gt;" style="ellipse;whiteSpace=wrap;html=1;fillColor=#FFCCFF;" parent="1" vertex="1">
          <mxGeometry x="450" y="200" width="120" height="30" as="geometry" />
        </mxCell>
        <mxCell id="3pP--lUJrI7Q3TOufA4M-55" value="companya" style="ellipse;whiteSpace=wrap;html=1;gradientColor=none;fillColor=#FFCCFF;strokeColor=#000000;gradientDirection=north;" parent="1" vertex="1">
          <mxGeometry x="610" y="240" width="120" height="30" as="geometry" />
        </mxCell>
        <mxCell id="3pP--lUJrI7Q3TOufA4M-56" value="num_plazas" style="ellipse;whiteSpace=wrap;html=1;fillColor=#FFCCFF;" parent="1" vertex="1">
          <mxGeometry x="760" y="200" width="120" height="30" as="geometry" />
        </mxCell>
        <mxCell id="3pP--lUJrI7Q3TOufA4M-57" value="datos_pago" style="ellipse;whiteSpace=wrap;html=1;fillColor=#f5f5f5;gradientColor=#b3b3b3;strokeColor=#666666;" parent="1" vertex="1">
          <mxGeometry x="420" y="590" width="120" height="30" as="geometry" />
        </mxCell>
        <mxCell id="3pP--lUJrI7Q3TOufA4M-58" value="direccion" style="ellipse;whiteSpace=wrap;html=1;fillColor=#f5f5f5;gradientColor=#b3b3b3;strokeColor=#666666;" parent="1" vertex="1">
          <mxGeometry x="290" y="620" width="120" height="30" as="geometry" />
        </mxCell>
        <mxCell id="3pP--lUJrI7Q3TOufA4M-59" value="nombre_completo" style="ellipse;whiteSpace=wrap;html=1;fillColor=#f5f5f5;gradientColor=#b3b3b3;strokeColor=#666666;" parent="1" vertex="1">
          <mxGeometry x="150" y="620" width="120" height="30" as="geometry" />
        </mxCell>
        <mxCell id="3pP--lUJrI7Q3TOufA4M-60" value="telefono" style="ellipse;whiteSpace=wrap;html=1;fillColor=#f5f5f5;gradientColor=#b3b3b3;strokeColor=#666666;" parent="1" vertex="1">
          <mxGeometry x="10" y="590" width="120" height="30" as="geometry" />
        </mxCell>
        <mxCell id="3pP--lUJrI7Q3TOufA4M-61" value="&lt;b&gt;&lt;u&gt;dni&lt;/u&gt;&lt;/b&gt;" style="ellipse;whiteSpace=wrap;html=1;fillColor=#f5f5f5;gradientColor=#b3b3b3;strokeColor=#666666;" parent="1" vertex="1">
          <mxGeometry x="-30" y="530" width="120" height="30" as="geometry" />
        </mxCell>
        <mxCell id="3pP--lUJrI7Q3TOufA4M-62" value="nombre" style="ellipse;whiteSpace=wrap;html=1;fillColor=#f5f5f5;gradientColor=#b3b3b3;strokeColor=#666666;" parent="1" vertex="1">
          <mxGeometry x="40" y="680" width="120" height="30" as="geometry" />
        </mxCell>
        <mxCell id="3pP--lUJrI7Q3TOufA4M-63" value="primer_apellido" style="ellipse;whiteSpace=wrap;html=1;fillColor=#f5f5f5;gradientColor=#b3b3b3;strokeColor=#666666;" parent="1" vertex="1">
          <mxGeometry x="130" y="730" width="120" height="30" as="geometry" />
        </mxCell>
        <mxCell id="3pP--lUJrI7Q3TOufA4M-64" value="segundo_apellido" style="ellipse;whiteSpace=wrap;html=1;fillColor=#f5f5f5;gradientColor=#b3b3b3;strokeColor=#666666;" parent="1" vertex="1">
          <mxGeometry x="250" y="690" width="120" height="30" as="geometry" />
        </mxCell>
        <mxCell id="3pP--lUJrI7Q3TOufA4M-65" value="" style="endArrow=none;html=1;rounded=0;entryX=0;entryY=1;entryDx=0;entryDy=0;exitX=1;exitY=0.5;exitDx=0;exitDy=0;" parent="1" source="3pP--lUJrI7Q3TOufA4M-61" target="ZWPdTzvgqdJTTZtDZFIi-2" edge="1">
          <mxGeometry width="50" height="50" relative="1" as="geometry">
            <mxPoint x="360" y="670" as="sourcePoint" />
            <mxPoint x="410" y="620" as="targetPoint" />
          </mxGeometry>
        </mxCell>
        <mxCell id="3pP--lUJrI7Q3TOufA4M-66" value="" style="endArrow=none;html=1;rounded=0;entryX=0;entryY=1;entryDx=0;entryDy=0;exitX=0.912;exitY=0.15;exitDx=0;exitDy=0;exitPerimeter=0;" parent="1" source="3pP--lUJrI7Q3TOufA4M-60" target="ZWPdTzvgqdJTTZtDZFIi-2" edge="1">
          <mxGeometry width="50" height="50" relative="1" as="geometry">
            <mxPoint x="100" y="555" as="sourcePoint" />
            <mxPoint x="210" y="510" as="targetPoint" />
          </mxGeometry>
        </mxCell>
        <mxCell id="3pP--lUJrI7Q3TOufA4M-67" value="" style="endArrow=none;html=1;rounded=0;entryX=0.5;entryY=1;entryDx=0;entryDy=0;fillColor=#f5f5f5;gradientColor=#b3b3b3;strokeColor=#1A1A1A;" parent="1" source="3pP--lUJrI7Q3TOufA4M-62" target="3pP--lUJrI7Q3TOufA4M-59" edge="1">
          <mxGeometry width="50" height="50" relative="1" as="geometry">
            <mxPoint x="153" y="609" as="sourcePoint" />
            <mxPoint x="210" y="510" as="targetPoint" />
          </mxGeometry>
        </mxCell>
        <mxCell id="3pP--lUJrI7Q3TOufA4M-68" value="" style="endArrow=none;html=1;rounded=0;entryX=0.5;entryY=1;entryDx=0;entryDy=0;exitX=0.5;exitY=0;exitDx=0;exitDy=0;fillColor=#f5f5f5;gradientColor=#b3b3b3;strokeColor=#000000;" parent="1" source="3pP--lUJrI7Q3TOufA4M-63" target="3pP--lUJrI7Q3TOufA4M-59" edge="1">
          <mxGeometry width="50" height="50" relative="1" as="geometry">
            <mxPoint x="141" y="692" as="sourcePoint" />
            <mxPoint x="220" y="660" as="targetPoint" />
          </mxGeometry>
        </mxCell>
        <mxCell id="3pP--lUJrI7Q3TOufA4M-69" value="" style="endArrow=none;html=1;rounded=0;entryX=0.5;entryY=1;entryDx=0;entryDy=0;exitX=0.5;exitY=0;exitDx=0;exitDy=0;fillColor=#f5f5f5;gradientColor=#b3b3b3;strokeColor=#000000;" parent="1" source="3pP--lUJrI7Q3TOufA4M-64" target="3pP--lUJrI7Q3TOufA4M-59" edge="1">
          <mxGeometry width="50" height="50" relative="1" as="geometry">
            <mxPoint x="200" y="740" as="sourcePoint" />
            <mxPoint x="220" y="660" as="targetPoint" />
          </mxGeometry>
        </mxCell>
        <mxCell id="3pP--lUJrI7Q3TOufA4M-70" value="" style="endArrow=none;html=1;rounded=0;entryX=0.5;entryY=0;entryDx=0;entryDy=0;" parent="1" target="3pP--lUJrI7Q3TOufA4M-59" edge="1">
          <mxGeometry width="50" height="50" relative="1" as="geometry">
            <mxPoint x="260" y="500" as="sourcePoint" />
            <mxPoint x="220" y="660" as="targetPoint" />
          </mxGeometry>
        </mxCell>
        <mxCell id="3pP--lUJrI7Q3TOufA4M-71" value="" style="endArrow=none;html=1;rounded=0;entryX=0.5;entryY=0;entryDx=0;entryDy=0;exitX=0.5;exitY=1;exitDx=0;exitDy=0;" parent="1" source="ZWPdTzvgqdJTTZtDZFIi-2" target="3pP--lUJrI7Q3TOufA4M-58" edge="1">
          <mxGeometry width="50" height="50" relative="1" as="geometry">
            <mxPoint x="263" y="509" as="sourcePoint" />
            <mxPoint x="220" y="630" as="targetPoint" />
          </mxGeometry>
        </mxCell>
        <mxCell id="3pP--lUJrI7Q3TOufA4M-72" value="" style="endArrow=none;html=1;rounded=0;entryX=0;entryY=0;entryDx=0;entryDy=0;exitX=1;exitY=1;exitDx=0;exitDy=0;" parent="1" source="ZWPdTzvgqdJTTZtDZFIi-2" target="3pP--lUJrI7Q3TOufA4M-57" edge="1">
          <mxGeometry width="50" height="50" relative="1" as="geometry">
            <mxPoint x="270" y="510" as="sourcePoint" />
            <mxPoint x="360" y="630" as="targetPoint" />
          </mxGeometry>
        </mxCell>
        <mxCell id="3pP--lUJrI7Q3TOufA4M-74" value="" style="endArrow=none;html=1;rounded=0;exitX=1;exitY=0.5;exitDx=0;exitDy=0;entryX=0;entryY=0;entryDx=0;entryDy=0;" parent="1" source="3pP--lUJrI7Q3TOufA4M-33" target="ZWPdTzvgqdJTTZtDZFIi-1" edge="1">
          <mxGeometry width="50" height="50" relative="1" as="geometry">
            <mxPoint x="180" y="320" as="sourcePoint" />
            <mxPoint x="230" y="270" as="targetPoint" />
          </mxGeometry>
        </mxCell>
        <mxCell id="3pP--lUJrI7Q3TOufA4M-75" value="" style="endArrow=none;html=1;rounded=0;exitX=1;exitY=0.5;exitDx=0;exitDy=0;entryX=0;entryY=0.5;entryDx=0;entryDy=0;" parent="1" source="3pP--lUJrI7Q3TOufA4M-34" target="ZWPdTzvgqdJTTZtDZFIi-1" edge="1">
          <mxGeometry width="50" height="50" relative="1" as="geometry">
            <mxPoint x="125" y="135" as="sourcePoint" />
            <mxPoint x="210" y="150" as="targetPoint" />
          </mxGeometry>
        </mxCell>
        <mxCell id="3pP--lUJrI7Q3TOufA4M-76" value="" style="endArrow=none;html=1;rounded=0;exitX=1;exitY=0.5;exitDx=0;exitDy=0;" parent="1" source="3pP--lUJrI7Q3TOufA4M-35" edge="1">
          <mxGeometry width="50" height="50" relative="1" as="geometry">
            <mxPoint x="75" y="180" as="sourcePoint" />
            <mxPoint x="200" y="170" as="targetPoint" />
          </mxGeometry>
        </mxCell>
        <mxCell id="3pP--lUJrI7Q3TOufA4M-77" value="" style="endArrow=none;html=1;rounded=0;exitX=1;exitY=0.5;exitDx=0;exitDy=0;entryX=0;entryY=1;entryDx=0;entryDy=0;" parent="1" source="3pP--lUJrI7Q3TOufA4M-36" target="ZWPdTzvgqdJTTZtDZFIi-1" edge="1">
          <mxGeometry width="50" height="50" relative="1" as="geometry">
            <mxPoint x="75" y="225" as="sourcePoint" />
            <mxPoint x="210" y="180" as="targetPoint" />
          </mxGeometry>
        </mxCell>
        <mxCell id="3pP--lUJrI7Q3TOufA4M-78" value="&lt;b&gt;&lt;u&gt;id_viaje&lt;/u&gt;&lt;/b&gt;" style="ellipse;whiteSpace=wrap;html=1;fillColor=#d5e8d4;strokeColor=#82b366;" parent="1" vertex="1">
          <mxGeometry x="10" y="-195" width="120" height="30" as="geometry" />
        </mxCell>
        <mxCell id="3pP--lUJrI7Q3TOufA4M-79" value="" style="endArrow=none;html=1;rounded=0;entryX=0.5;entryY=1;entryDx=0;entryDy=0;exitX=0.5;exitY=0;exitDx=0;exitDy=0;" parent="1" source="ZWPdTzvgqdJTTZtDZFIi-6" target="3pP--lUJrI7Q3TOufA4M-37" edge="1">
          <mxGeometry width="50" height="50" relative="1" as="geometry">
            <mxPoint x="270" y="-110" as="sourcePoint" />
            <mxPoint x="320" y="-160" as="targetPoint" />
          </mxGeometry>
        </mxCell>
        <mxCell id="3pP--lUJrI7Q3TOufA4M-80" value="" style="endArrow=none;html=1;rounded=0;entryX=0.5;entryY=1;entryDx=0;entryDy=0;" parent="1" target="3pP--lUJrI7Q3TOufA4M-38" edge="1">
          <mxGeometry width="50" height="50" relative="1" as="geometry">
            <mxPoint x="260" y="-140" as="sourcePoint" />
            <mxPoint x="310" y="-215" as="targetPoint" />
          </mxGeometry>
        </mxCell>
        <mxCell id="3pP--lUJrI7Q3TOufA4M-81" value="" style="endArrow=none;html=1;rounded=0;entryX=1;entryY=0.5;entryDx=0;entryDy=0;exitX=0;exitY=0;exitDx=0;exitDy=0;" parent="1" source="ZWPdTzvgqdJTTZtDZFIi-6" target="3pP--lUJrI7Q3TOufA4M-78" edge="1">
          <mxGeometry width="50" height="50" relative="1" as="geometry">
            <mxPoint x="270" y="-130" as="sourcePoint" />
            <mxPoint x="150" y="-210" as="targetPoint" />
          </mxGeometry>
        </mxCell>
        <mxCell id="3pP--lUJrI7Q3TOufA4M-82" value="" style="endArrow=none;html=1;rounded=0;entryX=0;entryY=0;entryDx=0;entryDy=0;exitX=1;exitY=1;exitDx=0;exitDy=0;" parent="1" source="3pP--lUJrI7Q3TOufA4M-41" target="ZWPdTzvgqdJTTZtDZFIi-5" edge="1">
          <mxGeometry width="50" height="50" relative="1" as="geometry">
            <mxPoint x="590" y="-110" as="sourcePoint" />
            <mxPoint x="640" y="-160" as="targetPoint" />
          </mxGeometry>
        </mxCell>
        <mxCell id="3pP--lUJrI7Q3TOufA4M-83" value="" style="endArrow=none;html=1;rounded=0;entryX=0.5;entryY=0;entryDx=0;entryDy=0;exitX=0.5;exitY=1;exitDx=0;exitDy=0;" parent="1" source="3pP--lUJrI7Q3TOufA4M-42" target="ZWPdTzvgqdJTTZtDZFIi-5" edge="1">
          <mxGeometry width="50" height="50" relative="1" as="geometry">
            <mxPoint x="580" y="-200" as="sourcePoint" />
            <mxPoint x="620" y="-130" as="targetPoint" />
          </mxGeometry>
        </mxCell>
        <mxCell id="3pP--lUJrI7Q3TOufA4M-84" value="" style="endArrow=none;html=1;rounded=0;entryX=0.5;entryY=0;entryDx=0;entryDy=0;exitX=0.5;exitY=1;exitDx=0;exitDy=0;" parent="1" source="3pP--lUJrI7Q3TOufA4M-43" target="ZWPdTzvgqdJTTZtDZFIi-5" edge="1">
          <mxGeometry width="50" height="50" relative="1" as="geometry">
            <mxPoint x="620" y="-240" as="sourcePoint" />
            <mxPoint x="680" y="-130" as="targetPoint" />
          </mxGeometry>
        </mxCell>
        <mxCell id="3pP--lUJrI7Q3TOufA4M-85" value="" style="endArrow=none;html=1;rounded=0;entryX=1;entryY=0;entryDx=0;entryDy=0;exitX=0.1;exitY=0.833;exitDx=0;exitDy=0;exitPerimeter=0;" parent="1" source="3pP--lUJrI7Q3TOufA4M-32" target="ZWPdTzvgqdJTTZtDZFIi-5" edge="1">
          <mxGeometry width="50" height="50" relative="1" as="geometry">
            <mxPoint x="760" y="-240" as="sourcePoint" />
            <mxPoint x="680" y="-130" as="targetPoint" />
          </mxGeometry>
        </mxCell>
        <mxCell id="3pP--lUJrI7Q3TOufA4M-86" value="" style="endArrow=none;html=1;rounded=0;entryX=0.5;entryY=1;entryDx=0;entryDy=0;exitX=0.5;exitY=0;exitDx=0;exitDy=0;fillColor=#f8cecc;strokeColor=#000000;" parent="1" source="3pP--lUJrI7Q3TOufA4M-42" target="3pP--lUJrI7Q3TOufA4M-44" edge="1">
          <mxGeometry width="50" height="50" relative="1" as="geometry">
            <mxPoint x="490" y="-270" as="sourcePoint" />
            <mxPoint x="540" y="-320" as="targetPoint" />
          </mxGeometry>
        </mxCell>
        <mxCell id="3pP--lUJrI7Q3TOufA4M-87" value="" style="endArrow=none;html=1;rounded=0;exitX=0.5;exitY=0;exitDx=0;exitDy=0;fillColor=#f8cecc;strokeColor=#000000;" parent="1" source="3pP--lUJrI7Q3TOufA4M-42" target="3pP--lUJrI7Q3TOufA4M-47" edge="1">
          <mxGeometry width="50" height="50" relative="1" as="geometry">
            <mxPoint x="620" y="-270" as="sourcePoint" />
            <mxPoint x="495" y="-340" as="targetPoint" />
          </mxGeometry>
        </mxCell>
        <mxCell id="3pP--lUJrI7Q3TOufA4M-88" value="" style="endArrow=none;html=1;rounded=0;exitX=0.5;exitY=0;exitDx=0;exitDy=0;entryX=0.5;entryY=1;entryDx=0;entryDy=0;fillColor=#f8cecc;strokeColor=#000000;" parent="1" source="3pP--lUJrI7Q3TOufA4M-43" target="3pP--lUJrI7Q3TOufA4M-46" edge="1">
          <mxGeometry width="50" height="50" relative="1" as="geometry">
            <mxPoint x="620" y="-270" as="sourcePoint" />
            <mxPoint x="628" y="-340" as="targetPoint" />
          </mxGeometry>
        </mxCell>
        <mxCell id="3pP--lUJrI7Q3TOufA4M-89" value="" style="endArrow=none;html=1;rounded=0;entryX=0.5;entryY=1;entryDx=0;entryDy=0;exitX=0.5;exitY=0;exitDx=0;exitDy=0;fillColor=#f8cecc;strokeColor=#000000;" parent="1" source="3pP--lUJrI7Q3TOufA4M-43" target="3pP--lUJrI7Q3TOufA4M-48" edge="1">
          <mxGeometry width="50" height="50" relative="1" as="geometry">
            <mxPoint x="750" y="-280" as="sourcePoint" />
            <mxPoint x="780" y="-330" as="targetPoint" />
          </mxGeometry>
        </mxCell>
        <mxCell id="3pP--lUJrI7Q3TOufA4M-90" value="" style="endArrow=none;html=1;rounded=0;entryX=0;entryY=1;entryDx=0;entryDy=0;exitX=1;exitY=0;exitDx=0;exitDy=0;fillColor=#e1d5e7;strokeColor=#CC99FF;" parent="1" source="ZWPdTzvgqdJTTZtDZFIi-4" target="3pP--lUJrI7Q3TOufA4M-50" edge="1">
          <mxGeometry width="50" height="50" relative="1" as="geometry">
            <mxPoint x="1220" y="-180" as="sourcePoint" />
            <mxPoint x="1270" y="-230" as="targetPoint" />
          </mxGeometry>
        </mxCell>
        <mxCell id="3pP--lUJrI7Q3TOufA4M-91" value="" style="endArrow=none;html=1;rounded=0;entryX=0;entryY=0;entryDx=0;entryDy=0;exitX=1;exitY=1;exitDx=0;exitDy=0;fillColor=#e1d5e7;strokeColor=#CC99FF;" parent="1" source="ZWPdTzvgqdJTTZtDZFIi-4" target="3pP--lUJrI7Q3TOufA4M-53" edge="1">
          <mxGeometry width="50" height="50" relative="1" as="geometry">
            <mxPoint x="1330" y="-115" as="sourcePoint" />
            <mxPoint x="1358" y="-154" as="targetPoint" />
          </mxGeometry>
        </mxCell>
        <mxCell id="3pP--lUJrI7Q3TOufA4M-92" value="" style="endArrow=none;html=1;rounded=0;entryX=0;entryY=0.5;entryDx=0;entryDy=0;exitX=1;exitY=0.5;exitDx=0;exitDy=0;fillColor=#e1d5e7;strokeColor=#CC99FF;" parent="1" source="ZWPdTzvgqdJTTZtDZFIi-4" target="3pP--lUJrI7Q3TOufA4M-51" edge="1">
          <mxGeometry width="50" height="50" relative="1" as="geometry">
            <mxPoint x="1330" y="-55" as="sourcePoint" />
            <mxPoint x="1348" y="-6" as="targetPoint" />
          </mxGeometry>
        </mxCell>
        <mxCell id="3pP--lUJrI7Q3TOufA4M-93" value="" style="endArrow=none;html=1;rounded=0;entryX=0;entryY=0.5;entryDx=0;entryDy=0;exitX=1;exitY=0.5;exitDx=0;exitDy=0;fillColor=#e1d5e7;strokeColor=#CC99FF;" parent="1" source="ZWPdTzvgqdJTTZtDZFIi-4" target="3pP--lUJrI7Q3TOufA4M-52" edge="1">
          <mxGeometry width="50" height="50" relative="1" as="geometry">
            <mxPoint x="1330" y="-85" as="sourcePoint" />
            <mxPoint x="1450" y="-105" as="targetPoint" />
          </mxGeometry>
        </mxCell>
        <mxCell id="3pP--lUJrI7Q3TOufA4M-94" value="" style="endArrow=none;html=1;rounded=0;exitX=0.565;exitY=-0.083;exitDx=0;exitDy=0;exitPerimeter=0;entryX=0;entryY=1;entryDx=0;entryDy=0;" parent="1" source="3pP--lUJrI7Q3TOufA4M-54" target="ZWPdTzvgqdJTTZtDZFIi-3" edge="1">
          <mxGeometry width="50" height="50" relative="1" as="geometry">
            <mxPoint x="530" y="180" as="sourcePoint" />
            <mxPoint x="580" y="130" as="targetPoint" />
          </mxGeometry>
        </mxCell>
        <mxCell id="3pP--lUJrI7Q3TOufA4M-95" value="" style="endArrow=none;html=1;rounded=0;exitX=0.5;exitY=0;exitDx=0;exitDy=0;entryX=0.5;entryY=1;entryDx=0;entryDy=0;" parent="1" source="3pP--lUJrI7Q3TOufA4M-55" target="ZWPdTzvgqdJTTZtDZFIi-3" edge="1">
          <mxGeometry width="50" height="50" relative="1" as="geometry">
            <mxPoint x="528" y="208" as="sourcePoint" />
            <mxPoint x="620" y="190" as="targetPoint" />
          </mxGeometry>
        </mxCell>
        <mxCell id="3pP--lUJrI7Q3TOufA4M-96" value="" style="endArrow=none;html=1;rounded=0;exitX=0.5;exitY=0;exitDx=0;exitDy=0;entryX=1;entryY=1;entryDx=0;entryDy=0;" parent="1" source="3pP--lUJrI7Q3TOufA4M-56" target="ZWPdTzvgqdJTTZtDZFIi-3" edge="1">
          <mxGeometry width="50" height="50" relative="1" as="geometry">
            <mxPoint x="680" y="250" as="sourcePoint" />
            <mxPoint x="680" y="190" as="targetPoint" />
          </mxGeometry>
        </mxCell>
        <mxCell id="boynwMUAM9F8tB_MEsJ0-1" value="&lt;b&gt;&lt;u&gt;id_vuelo&lt;/u&gt;&lt;/b&gt;" style="ellipse;whiteSpace=wrap;html=1;fillColor=#f8cecc;strokeColor=#b85450;" parent="1" vertex="1">
          <mxGeometry x="860" y="-280" width="120" height="30" as="geometry" />
        </mxCell>
        <mxCell id="boynwMUAM9F8tB_MEsJ0-2" value="" style="endArrow=none;html=1;rounded=0;entryX=1;entryY=0;entryDx=0;entryDy=0;exitX=0;exitY=0.5;exitDx=0;exitDy=0;" parent="1" source="boynwMUAM9F8tB_MEsJ0-1" target="ZWPdTzvgqdJTTZtDZFIi-5" edge="1">
          <mxGeometry width="50" height="50" relative="1" as="geometry">
            <mxPoint x="802" y="-190" as="sourcePoint" />
            <mxPoint x="740" y="-130" as="targetPoint" />
          </mxGeometry>
        </mxCell>
        <mxCell id="2g-73qfDOrxtp5lXm7d1-1" value="tarjeta" style="ellipse;whiteSpace=wrap;html=1;fillColor=#f5f5f5;gradientColor=#b3b3b3;strokeColor=#666666;" vertex="1" parent="1">
          <mxGeometry x="470" y="535" width="120" height="30" as="geometry" />
        </mxCell>
        <mxCell id="2g-73qfDOrxtp5lXm7d1-2" value="" style="endArrow=none;html=1;rounded=0;entryX=-0.003;entryY=0.241;entryDx=0;entryDy=0;exitX=1;exitY=1;exitDx=0;exitDy=0;entryPerimeter=0;" edge="1" parent="1" source="ZWPdTzvgqdJTTZtDZFIi-2" target="2g-73qfDOrxtp5lXm7d1-1">
          <mxGeometry width="50" height="50" relative="1" as="geometry">
            <mxPoint x="330" y="510" as="sourcePoint" />
            <mxPoint x="446" y="605" as="targetPoint" />
          </mxGeometry>
        </mxCell>
      </root>
    </mxGraphModel>
  </diagram>
</mxfile>
